<svg width="85" height="85" viewBox="0 0 85 85" fill="none" xmlns="http://www.w3.org/2000/svg">
<path d="M63.4526 27.3317C64.563 28.4421 65.3087 29.7679 65.549 31.0855C65.6733 31.7898 65.781 32.5273 65.8804 33.2566C62.4333 35.0133 60.2622 38.5433 60.2705 42.413L60.2705 42.4296C60.2622 46.2993 62.425 49.8376 65.8804 51.5861C65.7893 52.3236 65.6733 53.0528 65.549 53.7572C65.3004 55.1161 64.5132 56.5 63.3283 57.6352C62.1434 58.7704 60.6849 59.5328 59.2844 59.7566L59.2513 59.7566C56.6493 60.1875 47.526 60.7427 42.455 60.693L42.3721 60.693C37.3008 60.7427 28.1692 60.1792 25.5758 59.7566L25.5426 59.7566C24.0843 59.5246 22.5678 58.7042 21.3746 57.511C20.2642 56.4006 19.5184 55.0748 19.2782 53.7572C19.1539 53.0529 19.0378 52.3237 18.9467 51.5861C22.3939 49.8294 24.5649 46.2994 24.5566 42.4297L24.5566 42.4131C24.5649 38.5434 22.4022 35.0051 18.9467 33.2567C19.0379 32.5192 19.1539 31.79 19.2782 31.0856C19.5267 29.7266 20.314 28.3427 21.4906 27.2157C22.6673 26.0888 24.1423 25.3099 25.5345 25.0944L25.5676 25.0944C28.1696 24.6635 37.2929 24.1083 42.3639 24.158L42.4468 24.158C47.5181 24.1083 56.6497 24.6717 59.2431 25.0944L59.2762 25.0944C60.7429 25.3181 62.2594 26.1385 63.4526 27.3317V27.3317ZM66.6014 24.1829C64.7867 22.3682 62.4333 21.0755 59.9805 20.6943C57.0969 20.2137 47.7581 19.642 42.413 19.7004C37.0682 19.6424 27.7208 20.2227 24.8454 20.6943C20.0974 21.4484 15.7552 25.575 14.9019 30.3064C14.5373 32.3946 14.2804 34.4911 14.1395 36.6041C15.7388 36.5626 17.28 37.1758 18.407 38.3028C19.5008 39.3966 20.1057 40.8799 20.1057 42.4212C20.0975 45.6943 17.4873 48.288 14.1395 48.2383C14.3218 50.7573 14.6035 52.8289 14.9019 54.5359C15.3162 56.8229 16.5426 58.9609 18.233 60.6513C20.0477 62.466 22.3928 63.7504 24.8539 64.1399C27.7375 64.6205 37.0763 65.1922 42.4215 65.1339C47.7579 65.1836 57.1136 64.6116 59.989 64.1399C64.7454 63.3942 69.0792 59.2592 69.9325 54.5279C70.2308 52.8209 70.5043 50.7576 70.6949 48.2302C69.1039 48.2634 67.5626 47.6502 66.4357 46.5232C65.3418 45.4294 64.7369 43.9461 64.7453 42.4132C64.7535 39.14 67.3638 36.5463 70.7115 36.5961C70.5624 34.4913 70.3138 32.3866 69.9491 30.2984C69.5182 28.0113 68.2919 25.8734 66.6015 24.183L66.6014 24.1829Z" fill="#26374B"/>
<path d="M34.8725 53.3087C34.135 52.5712 34.0107 51.4194 34.5742 50.541L47.2278 30.7611C47.8908 29.717 49.2663 29.4188 50.3021 30.0899C51.3462 30.7528 51.6444 32.1283 50.9733 33.1642L38.3197 52.944C37.6568 53.9715 36.2813 54.2864 35.2455 53.6153C35.1046 53.5241 34.9886 53.4247 34.8726 53.3087L34.8725 53.3087Z" fill="#26374B"/>
<path d="M29.8178 40.0186C27.4395 37.6404 27.4395 33.7955 29.8094 31.4256C32.1793 29.0557 36.0326 29.0473 38.4025 31.4172C39.546 32.5608 40.184 34.1103 40.1923 35.7262C40.1923 39.0904 37.4661 41.8001 34.1101 41.8084C32.5026 41.8084 30.953 41.1703 29.8177 40.0185L29.8178 40.0186ZM35.2619 34.5744C34.6239 33.9364 33.5964 33.9364 32.9666 34.5827C32.3368 35.229 32.3285 36.2483 32.9748 36.878C33.6129 37.5161 34.6404 37.5161 35.2702 36.8698C35.5768 36.5632 35.7425 36.1489 35.7425 35.718C35.7508 35.2953 35.5685 34.881 35.2619 34.5744L35.2619 34.5744Z" fill="#26374B"/>
<path d="M46.4147 53.417C44.0364 51.0388 44.0364 47.1939 46.4147 44.8156C48.7929 42.4374 52.6378 42.4374 55.016 44.8156C56.1596 45.9592 56.7893 47.5004 56.7976 49.1163C56.7976 52.4806 54.0797 55.1985 50.7154 55.1985C49.0912 55.1985 47.55 54.5522 46.4147 53.4169L46.4147 53.417ZM51.8588 47.9729C51.2207 47.3348 50.1932 47.3348 49.5552 47.9729C48.9172 48.6109 48.9172 49.6384 49.5552 50.2765C50.1932 50.9145 51.2208 50.9145 51.8588 50.2765C52.1654 49.9699 52.3311 49.5555 52.3311 49.1246C52.3394 48.6854 52.1571 48.2711 51.8588 47.9728L51.8588 47.9729Z" fill="#26374B"/>
</svg>
